<?xml version="1.0" encoding="UTF-8"?>
<!DOCTYPE svg PUBLIC "-//W3C//DTD SVG 1.1//EN" "http://www.w3.org/Graphics/SVG/1.1/DTD/svg11.dtd">
<svg xmlns="http://www.w3.org/2000/svg" version="1.1" width="682px" height="695px" style="shape-rendering:geometricPrecision; text-rendering:geometricPrecision; image-rendering:optimizeQuality; fill-rule:evenodd; clip-rule:evenodd" xmlns:xlink="http://www.w3.org/1999/xlink">
<g><path style="opacity:0.551" fill="#c9c9c9" d="M 202.5,70.5 C 202.5,70.1667 202.5,69.8333 202.5,69.5C 296.001,69.1673 389.335,69.5006 482.5,70.5C 482.826,78.6841 482.492,86.6841 481.5,94.5C 481.5,86.5 481.5,78.5 481.5,70.5C 388.5,70.5 295.5,70.5 202.5,70.5 Z"/></g>
<g><path style="opacity:0.99" fill="#fefefe" d="M 202.5,70.5 C 295.5,70.5 388.5,70.5 481.5,70.5C 481.5,78.5 481.5,86.5 481.5,94.5C 388.5,94.5 295.5,94.5 202.5,94.5C 202.5,86.5 202.5,78.5 202.5,70.5 Z"/></g>
<g><path style="opacity:0.396" fill="#585858" d="M 202.5,69.5 C 202.5,69.8333 202.5,70.1667 202.5,70.5C 202.5,78.5 202.5,86.5 202.5,94.5C 202.167,94.5 201.833,94.5 201.5,94.5C 201.539,88.1201 201.206,81.2868 200.5,74C 200.525,72.124 201.191,70.624 202.5,69.5 Z"/></g>
<g><path style="opacity:0.195" fill="#252525" d="M 482.5,70.5 C 483.493,78.6499 483.826,86.9832 483.5,95.5C 390.195,96.6593 296.861,96.826 203.5,96C 202.584,95.7216 201.918,95.2216 201.5,94.5C 201.833,94.5 202.167,94.5 202.5,94.5C 295.5,94.5 388.5,94.5 481.5,94.5C 482.492,86.6841 482.826,78.6841 482.5,70.5 Z"/></g>
<g><path style="opacity:0.2" fill="#404040" d="M 360.5,132.5 C 360.735,131.903 361.235,131.57 362,131.5C 369.717,132.336 377.217,133.67 384.5,135.5C 377.188,134.615 369.855,133.948 362.5,133.5C 362.158,132.662 361.492,132.328 360.5,132.5 Z"/></g>
<g><path style="opacity:0.999" fill="#fdfdfd" d="M 317.5,133.5 C 318.141,157.396 317.474,181.063 315.5,204.5C 314.209,204.263 313.209,204.596 312.5,205.5C 282.19,209.206 254.857,220.04 230.5,238C 225.718,241.381 221.385,245.214 217.5,249.5C 212.26,253.233 207.426,257.566 203,262.5C 195.568,270.596 188.901,279.263 183,288.5C 180.881,292.402 179.048,296.402 177.5,300.5C 175.896,301.287 175.229,302.62 175.5,304.5C 172.778,307.321 170.612,310.655 169,314.5C 168.505,316.473 168.338,318.473 168.5,320.5C 167.069,321.78 166.402,323.447 166.5,325.5C 164.926,327.102 164.259,329.102 164.5,331.5C 164.737,332.791 164.404,333.791 163.5,334.5C 161.837,336.438 161.171,338.772 161.5,341.5C 161.784,343.415 161.451,345.081 160.5,346.5C 158.493,351.854 157.493,357.521 157.5,363.5C 156.698,364.952 156.198,366.618 156,368.5C 155.5,379.161 155.333,389.828 155.5,400.5C 155.967,405.411 155.3,410.078 153.5,414.5C 154.855,418.392 155.689,418.059 156,413.5C 156.236,415.119 157.069,416.119 158.5,416.5C 160.129,421.591 161.129,426.924 161.5,432.5C 161.259,434.898 161.926,436.898 163.5,438.5C 163.41,441.152 164.076,443.485 165.5,445.5C 165.402,447.553 166.069,449.22 167.5,450.5C 167.054,453.01 167.72,455.01 169.5,456.5C 170.171,461.506 172.171,465.839 175.5,469.5C 175.285,471.179 175.952,472.179 177.5,472.5C 177.031,475.393 178.031,477.393 180.5,478.5C 180.469,483.113 182.469,486.447 186.5,488.5C 186.738,490.404 187.738,491.738 189.5,492.5C 189.427,494.027 190.094,495.027 191.5,495.5C 191.738,497.404 192.738,498.738 194.5,499.5C 195.08,501.749 196.413,503.415 198.5,504.5C 199.08,506.749 200.413,508.415 202.5,509.5C 205.833,514.833 210.167,519.167 215.5,522.5C 216.638,525.086 218.638,526.753 221.5,527.5C 222.539,529.531 224.205,530.864 226.5,531.5C 227.979,534.305 230.312,535.972 233.5,536.5C 234.035,538.446 235.368,539.446 237.5,539.5C 238.492,539.328 239.158,539.662 239.5,540.5C 240.733,542.796 242.733,544.13 245.5,544.5C 247.253,546.223 249.253,547.723 251.5,549C 253.025,550.009 254.692,550.509 256.5,550.5C 258.153,550.66 259.486,551.326 260.5,552.5C 263.968,555.228 267.968,556.895 272.5,557.5C 273.635,559.213 275.302,559.88 277.5,559.5C 278.791,559.263 279.791,559.596 280.5,560.5C 281.842,561.793 283.509,562.626 285.5,563C 293.293,564.846 300.96,566.679 308.5,568.5C 311.023,569.254 313.689,569.92 316.5,570.5C 317.5,593.824 317.833,617.157 317.5,640.5C 313.131,640.533 308.798,640.2 304.5,639.5C 299.518,637.261 294.184,636.261 288.5,636.5C 286.007,635.226 283.341,634.56 280.5,634.5C 273.842,633.169 267.175,631.836 260.5,630.5C 258.898,628.926 256.898,628.259 254.5,628.5C 251.953,627.001 249.286,625.501 246.5,624C 244.866,623.506 243.199,623.34 241.5,623.5C 238.912,621.375 235.912,620.042 232.5,619.5C 230.518,616.863 227.852,615.53 224.5,615.5C 222.5,614.167 220.5,612.833 218.5,611.5C 217.101,610.11 215.434,609.11 213.5,608.5C 210.5,607.167 207.5,605.833 204.5,604.5C 203.564,603.026 202.23,602.026 200.5,601.5C 200.5,601.167 200.5,600.833 200.5,600.5C 200.539,599.417 200.873,598.417 201.5,597.5C 200.167,596.5 198.833,595.5 197.5,594.5C 198.025,593.808 198.692,593.308 199.5,593C 196.784,593.439 194.118,593.605 191.5,593.5C 189.273,591.393 187.273,589.06 185.5,586.5C 184.675,585.614 183.675,585.281 182.5,585.5C 182.306,582.67 181.639,580.004 180.5,577.5C 178.409,577.682 176.409,577.348 174.5,576.5C 174.167,576.667 173.833,576.833 173.5,577C 176.322,579.855 175.989,580.689 172.5,579.5C 171.833,579.5 171.167,579.5 170.5,579.5C 167.575,575.909 164.242,572.575 160.5,569.5C 143.555,551.574 128.555,532.241 115.5,511.5C 112.149,502.946 108.315,494.613 104,486.5C 99.6563,474.728 95.4896,463.061 91.5,451.5C 91.7847,448.171 91.1181,445.171 89.5,442.5C 88.4098,434.867 87.4098,427.2 86.5,419.5C 86.3342,414.821 86.5008,410.155 87,405.5C 87.3333,405.833 87.6667,406.167 88,406.5C 88.8077,404.421 88.641,402.421 87.5,400.5C 86.7492,401.376 86.2492,402.376 86,403.5C 85.5001,386.837 85.3334,370.17 85.5,353.5C 85.5,353.167 85.5,352.833 85.5,352.5C 86.7682,350.095 87.4349,347.428 87.5,344.5C 88.7682,342.095 89.4349,339.428 89.5,336.5C 89.5,334.5 89.5,332.5 89.5,330.5C 92.1484,324.534 93.815,318.201 94.5,311.5C 99.4338,299.045 104.767,286.711 110.5,274.5C 110.5,273.833 110.5,273.167 110.5,272.5C 111.5,271.167 112.5,269.833 113.5,268.5C 116.023,264.787 118.023,260.787 119.5,256.5C 121.346,254.97 122.346,252.97 122.5,250.5C 128.831,241.842 135.164,233.175 141.5,224.5C 149.937,215.562 158.604,206.728 167.5,198C 175.732,190.924 184.065,184.091 192.5,177.5C 194.404,177.262 195.738,176.262 196.5,174.5C 198.933,174.727 200.599,173.727 201.5,171.5C 203.674,171.25 205.341,170.25 206.5,168.5C 206.842,167.662 207.508,167.328 208.5,167.5C 211.441,166.18 214.441,164.847 217.5,163.5C 218.298,163.043 218.631,162.376 218.5,161.5C 223.632,159.913 228.298,157.579 232.5,154.5C 241.173,151.996 249.506,148.663 257.5,144.5C 258.209,143.596 259.209,143.263 260.5,143.5C 263.152,143.59 265.485,142.924 267.5,141.5C 270.152,141.59 272.485,140.924 274.5,139.5C 280.249,137.548 286.249,136.214 292.5,135.5C 300.826,134.751 309.16,134.084 317.5,133.5 Z"/></g>
<g><path style="opacity:0.999" fill="#fdfdfd" d="M 362.5,133.5 C 369.855,133.948 377.188,134.615 384.5,135.5C 388.122,135.322 391.456,135.989 394.5,137.5C 400.453,140.143 406.786,141.81 413.5,142.5C 416.079,142.394 418.412,143.061 420.5,144.5C 423.553,146.968 427.22,148.301 431.5,148.5C 433.703,150.1 436.036,151.433 438.5,152.5C 443.265,154.871 448.265,156.871 453.5,158.5C 454.287,160.104 455.62,160.771 457.5,160.5C 469.162,167.826 480.828,175.159 492.5,182.5C 492.973,183.906 493.973,184.573 495.5,184.5C 496.865,186.86 498.865,188.527 501.5,189.5C 503.193,192.19 505.527,194.19 508.5,195.5C 509.833,197.5 511.5,199.167 513.5,200.5C 513.833,200.5 514.167,200.5 514.5,200.5C 516.094,203.764 518.427,206.431 521.5,208.5C 521.833,208.5 522.167,208.5 522.5,208.5C 524.094,211.764 526.427,214.431 529.5,216.5C 531.094,219.764 533.427,222.431 536.5,224.5C 537.08,226.749 538.413,228.415 540.5,229.5C 541.08,231.749 542.413,233.415 544.5,234.5C 544.427,236.027 545.094,237.027 546.5,237.5C 546.738,239.404 547.738,240.738 549.5,241.5C 549.427,243.027 550.094,244.027 551.5,244.5C 551.427,246.027 552.094,247.027 553.5,247.5C 553.427,249.027 554.094,250.027 555.5,250.5C 555.75,252.674 556.75,254.341 558.5,255.5C 558.75,257.674 559.75,259.341 561.5,260.5C 561.157,262.483 561.824,263.817 563.5,264.5C 564.338,264.842 564.672,265.508 564.5,266.5C 564.427,268.027 565.094,269.027 566.5,269.5C 566.229,271.38 566.896,272.713 568.5,273.5C 568.166,276.491 569.166,278.824 571.5,280.5C 574.638,290.098 578.304,299.432 582.5,308.5C 582.41,311.152 583.076,313.485 584.5,315.5C 584.41,318.152 585.076,320.485 586.5,322.5C 588.836,328.507 590.169,334.841 590.5,341.5C 590.495,349.76 591.495,357.76 593.5,365.5C 595.623,403.522 590.623,440.522 578.5,476.5C 577.024,478.769 575.524,481.102 574,483.5C 570.79,492.257 567.29,500.924 563.5,509.5C 556.02,520.444 548.52,531.444 541,542.5C 518.238,572.096 490.405,595.43 457.5,612.5C 455.62,612.229 454.287,612.896 453.5,614.5C 424.538,629.167 393.538,637.834 360.5,640.5C 360.177,616.759 360.511,593.092 361.5,569.5C 363.698,569.125 365.698,568.458 367.5,567.5C 371.489,567.884 375.155,567.217 378.5,565.5C 379.919,564.549 381.585,564.216 383.5,564.5C 386.152,564.59 388.485,563.924 390.5,562.5C 393.152,562.59 395.485,561.924 397.5,560.5C 401.553,559.65 405.553,558.484 409.5,557C 410.056,556.617 410.389,556.117 410.5,555.5C 414.165,555.498 417.165,554.165 419.5,551.5C 422.049,551.613 424.382,550.946 426.5,549.5C 428.942,548.176 430.942,546.509 432.5,544.5C 434.674,544.25 436.341,543.25 437.5,541.5C 439.027,541.573 440.027,540.906 440.5,539.5C 446.348,536.985 451.348,533.318 455.5,528.5C 462.7,523.811 469.2,518.144 475,511.5C 481.5,504.48 487,496.813 491.5,488.5C 496.949,483.277 500.616,476.944 502.5,469.5C 505.829,465.839 507.829,461.506 508.5,456.5C 513.648,447.263 516.648,437.263 517.5,426.5C 517.232,424.901 517.566,423.568 518.5,422.5C 520.471,415.438 521.638,408.105 522,400.5C 522.969,385.762 522.469,371.095 520.5,356.5C 520.664,353.813 520.497,351.146 520,348.5C 519.617,347.944 519.117,347.611 518.5,347.5C 517.342,339.696 515.009,332.363 511.5,325.5C 507.723,311.889 501.89,299.222 494,287.5C 486.381,276.717 478.214,266.383 469.5,256.5C 466.769,252.766 463.436,249.766 459.5,247.5C 458.089,245.086 456.089,243.419 453.5,242.5C 450.661,240.58 447.661,238.913 444.5,237.5C 443.71,236.206 442.71,235.039 441.5,234C 438.102,232.643 435.102,230.81 432.5,228.5C 432.027,227.094 431.027,226.427 429.5,226.5C 424.91,224.872 420.577,222.705 416.5,220C 415.207,219.51 413.873,219.343 412.5,219.5C 409.987,217.074 406.987,215.408 403.5,214.5C 400.855,212.69 397.855,211.69 394.5,211.5C 391.495,209.723 388.162,208.723 384.5,208.5C 380.462,208.042 376.462,207.376 372.5,206.5C 368.816,204.77 364.816,203.77 360.5,203.5C 359.843,179.809 360.51,156.476 362.5,133.5 Z"/></g>
<g><path style="opacity:0.769" fill="#e0e0e0" d="M 317.5,133.5 C 318.498,156.994 318.831,180.661 318.5,204.5C 317.5,204.5 316.5,204.5 315.5,204.5C 317.474,181.063 318.141,157.396 317.5,133.5 Z"/></g>
<g><path style="opacity:0.794" fill="#d4d4d4" d="M 359.5,132.5 C 359.833,132.5 360.167,132.5 360.5,132.5C 361.492,132.328 362.158,132.662 362.5,133.5C 360.51,156.476 359.843,179.809 360.5,203.5C 364.816,203.77 368.816,204.77 372.5,206.5C 368.147,205.941 363.814,205.275 359.5,204.5C 359.5,180.5 359.5,156.5 359.5,132.5 Z"/></g>
<g><path style="opacity:0.149" fill="#606060" d="M 394.5,137.5 C 401.219,138.095 407.552,139.762 413.5,142.5C 406.786,141.81 400.453,140.143 394.5,137.5 Z"/></g>
<g><path style="opacity:0.247" fill="#505050" d="M 274.5,139.5 C 272.485,140.924 270.152,141.59 267.5,141.5C 269.515,140.076 271.848,139.41 274.5,139.5 Z"/></g>
<g><path style="opacity:0.295" fill="#4b4b4b" d="M 317.5,205.5 C 315.833,205.5 314.167,205.5 312.5,205.5C 313.209,204.596 314.209,204.263 315.5,204.5C 316.5,204.5 317.5,204.5 318.5,204.5C 318.831,180.661 318.498,156.994 317.5,133.5C 309.16,134.084 300.826,134.751 292.5,135.5C 300.963,133.554 309.629,132.387 318.5,132C 319.167,133.333 319.833,134.667 320.5,136C 320.452,157.94 320.452,179.94 320.5,202C 320.293,203.95 319.293,205.116 317.5,205.5 Z"/></g>
<g><path style="opacity:0.149" fill="#434343" d="M 267.5,141.5 C 265.485,142.924 263.152,143.59 260.5,143.5C 262.515,142.076 264.848,141.41 267.5,141.5 Z"/></g>
<g><path style="opacity:0.424" fill="#5d5d5d" d="M 420.5,144.5 C 424.532,145.082 428.199,146.416 431.5,148.5C 427.22,148.301 423.553,146.968 420.5,144.5 Z"/></g>
<g><path style="opacity:0.384" fill="#616161" d="M 257.5,144.5 C 249.506,148.663 241.173,151.996 232.5,154.5C 240.257,150.019 248.59,146.685 257.5,144.5 Z"/></g>
<g><path style="opacity:0.086" fill="#3c3c3c" d="M 431.5,148.5 C 435.137,149.263 438.47,150.597 441.5,152.5C 440.5,152.5 439.5,152.5 438.5,152.5C 436.036,151.433 433.703,150.1 431.5,148.5 Z"/></g>
<g><path style="opacity:0.161" fill="#5f5f5f" d="M 438.5,152.5 C 439.5,152.5 440.5,152.5 441.5,152.5C 445.877,153.946 449.877,155.946 453.5,158.5C 448.265,156.871 443.265,154.871 438.5,152.5 Z"/></g>
<g><path style="opacity:0.055" fill="#464646" d="M 232.5,154.5 C 228.298,157.579 223.632,159.913 218.5,161.5C 222.581,158.126 227.247,155.793 232.5,154.5 Z"/></g>
<g><path style="opacity:0.169" fill="#555555" d="M 453.5,158.5 C 455.38,158.229 456.713,158.896 457.5,160.5C 455.62,160.771 454.287,160.104 453.5,158.5 Z"/></g>
<g><path style="opacity:0.604" fill="#6f6f6f" d="M 218.5,161.5 C 218.631,162.376 218.298,163.043 217.5,163.5C 214.441,164.847 211.441,166.18 208.5,167.5C 211.161,164.498 214.495,162.498 218.5,161.5 Z"/></g>
<g><path style="opacity:0.063" fill="#4d4d4d" d="M 206.5,168.5 C 205.341,170.25 203.674,171.25 201.5,171.5C 202.659,169.75 204.326,168.75 206.5,168.5 Z"/></g>
<g><path style="opacity:0.133" fill="#4a4a4a" d="M 457.5,160.5 C 470.238,166.259 481.904,173.593 492.5,182.5C 480.828,175.159 469.162,167.826 457.5,160.5 Z"/></g>
<g><path style="opacity:0.18" fill="#555555" d="M 201.5,171.5 C 200.599,173.727 198.933,174.727 196.5,174.5C 197.899,173.11 199.566,172.11 201.5,171.5 Z"/></g>
<g><path style="opacity:0.118" fill="#404040" d="M 196.5,174.5 C 195.738,176.262 194.404,177.262 192.5,177.5C 193.262,175.738 194.596,174.738 196.5,174.5 Z"/></g>
<g><path style="opacity:0.02" fill="#2f2f2f" d="M 492.5,182.5 C 494.027,182.427 495.027,183.094 495.5,184.5C 493.973,184.573 492.973,183.906 492.5,182.5 Z"/></g>
<g><path style="opacity:0.145" fill="#4a4a4a" d="M 495.5,184.5 C 498.109,185.443 500.109,187.11 501.5,189.5C 498.865,188.527 496.865,186.86 495.5,184.5 Z"/></g>
<g><path style="opacity:0.161" fill="#4d4d4d" d="M 501.5,189.5 C 504.447,190.781 506.781,192.781 508.5,195.5C 505.527,194.19 503.193,192.19 501.5,189.5 Z"/></g>
<g><path style="opacity:0.004" fill="#2e2e2e" d="M 508.5,195.5 C 511.167,196.167 512.833,197.833 513.5,200.5C 511.5,199.167 509.833,197.5 508.5,195.5 Z"/></g>
<g><path style="opacity:0.224" fill="#404040" d="M 514.5,200.5 C 517.573,202.569 519.906,205.236 521.5,208.5C 518.427,206.431 516.094,203.764 514.5,200.5 Z"/></g>
<g><path style="opacity:0.02" fill="#292929" d="M 359.5,132.5 C 359.5,156.5 359.5,180.5 359.5,204.5C 363.814,205.275 368.147,205.941 372.5,206.5C 376.462,207.376 380.462,208.042 384.5,208.5C 387.505,210.277 390.838,211.277 394.5,211.5C 396.072,212.687 397.739,213.687 399.5,214.5C 387.082,210.73 374.415,207.896 361.5,206C 359.939,205.682 358.772,204.849 358,203.5C 357.333,180.5 357.333,157.5 358,134.5C 358.278,133.584 358.778,132.918 359.5,132.5 Z"/></g>
<g><path style="opacity:0.698" fill="#a9a9a9" d="M 384.5,208.5 C 388.162,208.723 391.495,209.723 394.5,211.5C 390.838,211.277 387.505,210.277 384.5,208.5 Z"/></g>
<g><path style="opacity:0.224" fill="#3a3a3a" d="M 522.5,208.5 C 525.573,210.569 527.906,213.236 529.5,216.5C 526.427,214.431 524.094,211.764 522.5,208.5 Z"/></g>
<g><path style="opacity:0.196" fill="#444444" d="M 192.5,177.5 C 184.065,184.091 175.732,190.924 167.5,198C 158.604,206.728 149.937,215.562 141.5,224.5C 155.668,205.662 172.668,189.995 192.5,177.5 Z"/></g>
<g><path style="opacity:0.596" fill="#9a9a9a" d="M 394.5,211.5 C 397.855,211.69 400.855,212.69 403.5,214.5C 402.167,214.5 400.833,214.5 399.5,214.5C 397.739,213.687 396.072,212.687 394.5,211.5 Z"/></g>
<g><path style="opacity:0.016" fill="#262626" d="M 399.5,214.5 C 400.833,214.5 402.167,214.5 403.5,214.5C 406.987,215.408 409.987,217.074 412.5,219.5C 407.957,218.285 403.624,216.618 399.5,214.5 Z"/></g>
<g><path style="opacity:0.396" fill="#505050" d="M 529.5,216.5 C 532.573,218.569 534.906,221.236 536.5,224.5C 533.427,222.431 531.094,219.764 529.5,216.5 Z"/></g>
<g><path style="opacity:0.024" fill="#1d1d1d" d="M 412.5,219.5 C 413.873,219.343 415.207,219.51 416.5,220C 420.577,222.705 424.91,224.872 429.5,226.5C 429.973,227.906 430.973,228.573 432.5,228.5C 435.102,230.81 438.102,232.643 441.5,234C 442.71,235.039 443.71,236.206 444.5,237.5C 434.084,231.091 423.418,225.091 412.5,219.5 Z"/></g>
<g><path style="opacity:0.306" fill="#454545" d="M 536.5,224.5 C 538.587,225.585 539.92,227.251 540.5,229.5C 538.413,228.415 537.08,226.749 536.5,224.5 Z"/></g>
<g><path style="opacity:0.024" fill="#292929" d="M 312.5,205.5 C 314.167,205.5 315.833,205.5 317.5,205.5C 279.724,210.723 246.39,225.723 217.5,250.5C 217.5,250.167 217.5,249.833 217.5,249.5C 221.385,245.214 225.718,241.381 230.5,238C 254.857,220.04 282.19,209.206 312.5,205.5 Z"/></g>
<g><path style="opacity:0.388" fill="#8d8d8d" d="M 429.5,226.5 C 431.027,226.427 432.027,227.094 432.5,228.5C 430.973,228.573 429.973,227.906 429.5,226.5 Z"/></g>
<g><path style="opacity:0.173" fill="#3c3c3c" d="M 540.5,229.5 C 542.587,230.585 543.92,232.251 544.5,234.5C 542.413,233.415 541.08,231.749 540.5,229.5 Z"/></g>
<g><path style="opacity:0.102" fill="#353535" d="M 544.5,234.5 C 545.906,234.973 546.573,235.973 546.5,237.5C 545.094,237.027 544.427,236.027 544.5,234.5 Z"/></g>
<g><path style="opacity:0.024" fill="#1b1b1b" d="M 444.5,237.5 C 447.661,238.913 450.661,240.58 453.5,242.5C 454.833,244.167 456.167,245.833 457.5,247.5C 452.617,244.891 448.284,241.557 444.5,237.5 Z"/></g>
<g><path style="opacity:0.157" fill="#444444" d="M 546.5,237.5 C 548.262,238.262 549.262,239.596 549.5,241.5C 547.738,240.738 546.738,239.404 546.5,237.5 Z"/></g>
<g><path style="opacity:0.157" fill="#3d3d3d" d="M 141.5,224.5 C 135.164,233.175 128.831,241.842 122.5,250.5C 127.369,240.76 133.703,232.094 141.5,224.5 Z"/></g>
<g><path style="opacity:0.106" fill="#343434" d="M 549.5,241.5 C 550.906,241.973 551.573,242.973 551.5,244.5C 550.094,244.027 549.427,243.027 549.5,241.5 Z"/></g>
<g><path style="opacity:0.522" fill="#9e9e9e" d="M 453.5,242.5 C 456.089,243.419 458.089,245.086 459.5,247.5C 458.833,247.5 458.167,247.5 457.5,247.5C 456.167,245.833 454.833,244.167 453.5,242.5 Z"/></g>
<g><path style="opacity:0.102" fill="#363636" d="M 551.5,244.5 C 552.906,244.973 553.573,245.973 553.5,247.5C 552.094,247.027 551.427,246.027 551.5,244.5 Z"/></g>
<g><path style="opacity:0.812" fill="#a5a5a5" d="M 459.5,247.5 C 463.436,249.766 466.769,252.766 469.5,256.5C 468.833,256.5 468.167,256.5 467.5,256.5C 464.833,253.5 462.167,250.5 459.5,247.5 Z"/></g>
<g><path style="opacity:0.086" fill="#383838" d="M 553.5,247.5 C 554.906,247.973 555.573,248.973 555.5,250.5C 554.094,250.027 553.427,249.027 553.5,247.5 Z"/></g>
<g><path style="opacity:0.043" fill="#1a1a1a" d="M 457.5,247.5 C 458.167,247.5 458.833,247.5 459.5,247.5C 462.167,250.5 464.833,253.5 467.5,256.5C 463.564,254.234 460.231,251.234 457.5,247.5 Z"/></g>
<g><path style="opacity:0.059" fill="#343434" d="M 555.5,250.5 C 557.25,251.659 558.25,253.326 558.5,255.5C 556.75,254.341 555.75,252.674 555.5,250.5 Z"/></g>
<g><path style="opacity:0.208" fill="#474747" d="M 122.5,250.5 C 122.346,252.97 121.346,254.97 119.5,256.5C 119.654,254.03 120.654,252.03 122.5,250.5 Z"/></g>
<g><path style="opacity:0.063" fill="#343434" d="M 558.5,255.5 C 560.25,256.659 561.25,258.326 561.5,260.5C 559.75,259.341 558.75,257.674 558.5,255.5 Z"/></g>
<g><path style="opacity:0.451" fill="#7f7f7f" d="M 119.5,256.5 C 118.023,260.787 116.023,264.787 113.5,268.5C 113.5,267.833 113.5,267.167 113.5,266.5C 114.498,262.495 116.498,259.161 119.5,256.5 Z"/></g>
<g><path style="opacity:0.035" fill="#393939" d="M 217.5,249.5 C 217.5,249.833 217.5,250.167 217.5,250.5C 201.568,265.098 188.234,281.764 177.5,300.5C 179.048,296.402 180.881,292.402 183,288.5C 188.901,279.263 195.568,270.596 203,262.5C 207.426,257.566 212.26,253.233 217.5,249.5 Z"/></g>
<g><path style="opacity:0.592" fill="#696969" d="M 561.5,260.5 C 562.674,261.514 563.34,262.847 563.5,264.5C 561.824,263.817 561.157,262.483 561.5,260.5 Z"/></g>
<g><path style="opacity:0.067" fill="#2f2f2f" d="M 564.5,266.5 C 565.906,266.973 566.573,267.973 566.5,269.5C 565.094,269.027 564.427,268.027 564.5,266.5 Z"/></g>
<g><path style="opacity:0.039" fill="#313131" d="M 113.5,266.5 C 113.5,267.167 113.5,267.833 113.5,268.5C 112.5,269.833 111.5,271.167 110.5,272.5C 110.461,269.911 111.461,267.911 113.5,266.5 Z"/></g>
<g><path style="opacity:0.075" fill="#323232" d="M 566.5,269.5 C 567.674,270.514 568.34,271.847 568.5,273.5C 566.896,272.713 566.229,271.38 566.5,269.5 Z"/></g>
<g><path style="opacity:0.031" fill="#2f2f2f" d="M 110.5,272.5 C 110.5,273.167 110.5,273.833 110.5,274.5C 109.833,274.833 109.167,275.167 108.5,275.5C 108.427,273.973 109.094,272.973 110.5,272.5 Z"/></g>
<g><path style="opacity:0.431" fill="#545454" d="M 568.5,273.5 C 570.293,275.426 571.293,277.759 571.5,280.5C 569.166,278.824 568.166,276.491 568.5,273.5 Z"/></g>
<g><path style="opacity:0.498" fill="#5a5a5a" d="M 571.5,280.5 C 576.325,289.295 579.991,298.628 582.5,308.5C 578.304,299.432 574.638,290.098 571.5,280.5 Z"/></g>
<g><path style="opacity:0.082" fill="#303030" d="M 467.5,256.5 C 468.167,256.5 468.833,256.5 469.5,256.5C 478.214,266.383 486.381,276.717 494,287.5C 501.89,299.222 507.723,311.889 511.5,325.5C 501.129,299.756 486.462,276.756 467.5,256.5 Z"/></g>
<g><path style="opacity:0.337" fill="#575757" d="M 110.5,274.5 C 104.767,286.711 99.4338,299.045 94.5,311.5C 97.8119,298.885 102.479,286.885 108.5,275.5C 109.167,275.167 109.833,274.833 110.5,274.5 Z"/></g>
<g><path style="opacity:0.067" fill="#373737" d="M 177.5,300.5 C 177.34,302.153 176.674,303.486 175.5,304.5C 175.229,302.62 175.896,301.287 177.5,300.5 Z"/></g>
<g><path style="opacity:0.467" fill="#666666" d="M 175.5,304.5 C 173.537,310.076 171.204,315.409 168.5,320.5C 168.338,318.473 168.505,316.473 169,314.5C 170.612,310.655 172.778,307.321 175.5,304.5 Z"/></g>
<g><path style="opacity:0.22" fill="#474747" d="M 582.5,308.5 C 583.924,310.515 584.59,312.848 584.5,315.5C 583.076,313.485 582.41,311.152 582.5,308.5 Z"/></g>
<g><path style="opacity:0.102" fill="#494949" d="M 94.5,311.5 C 93.815,318.201 92.1484,324.534 89.5,330.5C 90.4068,323.868 92.0735,317.534 94.5,311.5 Z"/></g>
<g><path style="opacity:0.184" fill="#474747" d="M 584.5,315.5 C 585.924,317.515 586.59,319.848 586.5,322.5C 585.076,320.485 584.41,318.152 584.5,315.5 Z"/></g>
<g><path style="opacity:0.059" fill="#323232" d="M 168.5,320.5 C 168.598,322.553 167.931,324.22 166.5,325.5C 166.402,323.447 167.069,321.78 168.5,320.5 Z"/></g>
<g><path style="opacity:0.094" fill="#3c3c3c" d="M 166.5,325.5 C 166.405,327.786 165.738,329.786 164.5,331.5C 164.259,329.102 164.926,327.102 166.5,325.5 Z"/></g>
<g><path style="opacity:0.106" fill="#383838" d="M 511.5,325.5 C 515.009,332.363 517.342,339.696 518.5,347.5C 519.159,350.455 519.492,353.455 519.5,356.5C 517.015,346.231 514.349,335.898 511.5,325.5 Z"/></g>
<g><path style="opacity:0.267" fill="#5a5a5a" d="M 163.5,334.5 C 163.279,337.067 162.612,339.401 161.5,341.5C 161.171,338.772 161.837,336.438 163.5,334.5 Z"/></g>
<g><path style="opacity:0.094" fill="#323232" d="M 89.5,330.5 C 89.5,332.5 89.5,334.5 89.5,336.5C 88.8333,337.5 88.1667,338.5 87.5,339.5C 87.6761,336.273 88.3428,333.273 89.5,330.5 Z"/></g>
<g><path style="opacity:0.451" fill="#9a9a9a" d="M 89.5,336.5 C 89.4349,339.428 88.7682,342.095 87.5,344.5C 87.5,343.167 87.5,341.833 87.5,340.5C 87.5,340.167 87.5,339.833 87.5,339.5C 88.1667,338.5 88.8333,337.5 89.5,336.5 Z"/></g>
<g><path style="opacity:0.298" fill="#424242" d="M 87.5,340.5 C 87.5,341.833 87.5,343.167 87.5,344.5C 87.4349,347.428 86.7682,350.095 85.5,352.5C 85.5387,348.267 86.2053,344.267 87.5,340.5 Z"/></g>
<g><path style="opacity:0.506" fill="#707070" d="M 590.5,341.5 C 592.602,349.228 593.602,357.228 593.5,365.5C 591.495,357.76 590.495,349.76 590.5,341.5 Z"/></g>
<g><path style="opacity:0.047" fill="#3a3a3a" d="M 160.5,346.5 C 160.02,352.386 159.02,358.052 157.5,363.5C 157.493,357.521 158.493,351.854 160.5,346.5 Z"/></g>
<g><path style="opacity:0.447" fill="#aeaeae" d="M 518.5,347.5 C 519.117,347.611 519.617,347.944 520,348.5C 520.497,351.146 520.664,353.813 520.5,356.5C 520.167,356.5 519.833,356.5 519.5,356.5C 519.492,353.455 519.159,350.455 518.5,347.5 Z"/></g>
<g><path style="opacity:0.082" fill="#434343" d="M 519.5,356.5 C 519.833,356.5 520.167,356.5 520.5,356.5C 522.469,371.095 522.969,385.762 522,400.5C 521.638,408.105 520.471,415.438 518.5,422.5C 522.031,400.55 522.365,378.55 519.5,356.5 Z"/></g>
<g><path style="opacity:0.106" fill="#434343" d="M 157.5,363.5 C 156.167,378.5 156.167,393.5 157.5,408.5C 156.833,405.833 156.167,403.167 155.5,400.5C 155.333,389.828 155.5,379.161 156,368.5C 156.198,366.618 156.698,364.952 157.5,363.5 Z"/></g>
<g><path style="opacity:0.311" fill="#484848" d="M 84.5,364.5 C 84.5,379.5 84.5,394.5 84.5,409.5C 83.6424,402.337 82.9757,395.004 82.5,387.5C 82.035,379.68 82.7017,372.014 84.5,364.5 Z"/></g>
<g><path style="opacity:0.773" fill="#b5b5b5" d="M 85.5,353.5 C 85.3334,370.17 85.5001,386.837 86,403.5C 86.2492,402.376 86.7492,401.376 87.5,400.5C 88.641,402.421 88.8077,404.421 88,406.5C 87.6667,406.167 87.3333,405.833 87,405.5C 86.5008,410.155 86.3342,414.821 86.5,419.5C 86.1667,419.5 85.8333,419.5 85.5,419.5C 84.5206,416.375 84.1872,413.042 84.5,409.5C 84.5,394.5 84.5,379.5 84.5,364.5C 84.185,360.629 84.5184,356.962 85.5,353.5 Z"/></g>
<g><path style="opacity:0.984" fill="#bababa" d="M 155.5,400.5 C 156.167,403.167 156.833,405.833 157.5,408.5C 158.388,411.054 158.721,413.721 158.5,416.5C 157.069,416.119 156.236,415.119 156,413.5C 155.689,418.059 154.855,418.392 153.5,414.5C 155.3,410.078 155.967,405.411 155.5,400.5 Z"/></g>
<g><path style="opacity:0.063" fill="#3f3f3f" d="M 85.5,419.5 C 85.8333,419.5 86.1667,419.5 86.5,419.5C 87.4098,427.2 88.4098,434.867 89.5,442.5C 87.2512,435.119 85.9179,427.452 85.5,419.5 Z"/></g>
<g><path style="opacity:0.114" fill="#464646" d="M 161.5,432.5 C 163.074,434.102 163.741,436.102 163.5,438.5C 161.926,436.898 161.259,434.898 161.5,432.5 Z"/></g>
<g><path style="opacity:0.216" fill="#434343" d="M 163.5,438.5 C 164.924,440.515 165.59,442.848 165.5,445.5C 164.076,443.485 163.41,441.152 163.5,438.5 Z"/></g>
<g><path style="opacity:0.027" fill="#313131" d="M 89.5,442.5 C 91.1181,445.171 91.7847,448.171 91.5,451.5C 90.087,448.781 89.4203,445.781 89.5,442.5 Z"/></g>
<g><path style="opacity:0.349" fill="#595959" d="M 517.5,426.5 C 516.648,437.263 513.648,447.263 508.5,456.5C 511.829,446.499 514.829,436.499 517.5,426.5 Z"/></g>
<g><path style="opacity:0.141" fill="#4e4e4e" d="M 593.5,365.5 C 597.305,403.675 592.305,440.675 578.5,476.5C 590.623,440.522 595.623,403.522 593.5,365.5 Z"/></g>
<g><path style="opacity:0.031" fill="#323232" d="M 165.5,445.5 C 166.931,446.78 167.598,448.447 167.5,450.5C 166.069,449.22 165.402,447.553 165.5,445.5 Z"/></g>
<g><path style="opacity:0.49" fill="#656565" d="M 167.5,450.5 C 168.738,452.214 169.405,454.214 169.5,456.5C 167.72,455.01 167.054,453.01 167.5,450.5 Z"/></g>
<g><path style="opacity:0.557" fill="#5c5c5c" d="M 169.5,456.5 C 172.29,460.416 174.29,464.749 175.5,469.5C 172.171,465.839 170.171,461.506 169.5,456.5 Z"/></g>
<g><path style="opacity:0.369" fill="#505050" d="M 508.5,456.5 C 507.829,461.506 505.829,465.839 502.5,469.5C 503.71,464.749 505.71,460.416 508.5,456.5 Z"/></g>
<g><path style="opacity:0.031" fill="#2d2d2d" d="M 175.5,469.5 C 176.906,469.973 177.573,470.973 177.5,472.5C 175.952,472.179 175.285,471.179 175.5,469.5 Z"/></g>
<g><path style="opacity:0.463" fill="#5a5a5a" d="M 177.5,472.5 C 179.008,474.181 180.008,476.181 180.5,478.5C 178.031,477.393 177.031,475.393 177.5,472.5 Z"/></g>
<g><path style="opacity:0.427" fill="#585858" d="M 502.5,469.5 C 500.616,476.944 496.949,483.277 491.5,488.5C 494.917,481.995 498.584,475.662 502.5,469.5 Z"/></g>
<g><path style="opacity:0.533" fill="#737373" d="M 180.5,478.5 C 183,481.494 185,484.827 186.5,488.5C 182.469,486.447 180.469,483.113 180.5,478.5 Z"/></g>
<g><path style="opacity:0.247" fill="#444444" d="M 186.5,488.5 C 188.262,489.262 189.262,490.596 189.5,492.5C 187.738,491.738 186.738,490.404 186.5,488.5 Z"/></g>
<g><path style="opacity:0.047" fill="#3f3f3f" d="M 578.5,476.5 C 576.305,483.247 573.805,489.914 571,496.5C 568.992,501.191 566.492,505.524 563.5,509.5C 567.29,500.924 570.79,492.257 574,483.5C 575.524,481.102 577.024,478.769 578.5,476.5 Z"/></g>
<g><path style="opacity:0.118" fill="#3d3d3d" d="M 189.5,492.5 C 190.906,492.973 191.573,493.973 191.5,495.5C 190.094,495.027 189.427,494.027 189.5,492.5 Z"/></g>
<g><path style="opacity:0.165" fill="#3e3e3e" d="M 191.5,495.5 C 193.262,496.262 194.262,497.596 194.5,499.5C 192.738,498.738 191.738,497.404 191.5,495.5 Z"/></g>
<g><path style="opacity:0.302" fill="#444444" d="M 194.5,499.5 C 196.587,500.585 197.92,502.251 198.5,504.5C 196.413,503.415 195.08,501.749 194.5,499.5 Z"/></g>
<g><path style="opacity:0.035" fill="#303030" d="M 91.5,451.5 C 95.4896,463.061 99.6563,474.728 104,486.5C 108.315,494.613 112.149,502.946 115.5,511.5C 110.689,503.952 106.522,495.952 103,487.5C 98.0583,475.842 94.225,463.842 91.5,451.5 Z"/></g>
<g><path style="opacity:0.282" fill="#4f4f4f" d="M 198.5,504.5 C 200.587,505.585 201.92,507.251 202.5,509.5C 200.413,508.415 199.08,506.749 198.5,504.5 Z"/></g>
<g><path style="opacity:0.424" fill="#656565" d="M 202.5,509.5 C 207.167,513.5 211.5,517.833 215.5,522.5C 210.167,519.167 205.833,514.833 202.5,509.5 Z"/></g>
<g><path style="opacity:0.314" fill="#5a5a5a" d="M 491.5,488.5 C 487,496.813 481.5,504.48 475,511.5C 469.2,518.144 462.7,523.811 455.5,528.5C 468.895,516.34 480.895,503.007 491.5,488.5 Z"/></g>
<g><path style="opacity:0.153" fill="#5b5b5b" d="M 215.5,522.5 C 218.109,523.443 220.109,525.11 221.5,527.5C 218.638,526.753 216.638,525.086 215.5,522.5 Z"/></g>
<g><path style="opacity:0.196" fill="#555555" d="M 221.5,527.5 C 223.754,528.124 225.421,529.457 226.5,531.5C 224.205,530.864 222.539,529.531 221.5,527.5 Z"/></g>
<g><path style="opacity:0.435" fill="#5e5e5e" d="M 226.5,531.5 C 229.135,532.811 231.469,534.478 233.5,536.5C 230.312,535.972 227.979,534.305 226.5,531.5 Z"/></g>
<g><path style="opacity:0.129" fill="#535353" d="M 455.5,528.5 C 451.348,533.318 446.348,536.985 440.5,539.5C 445.214,535.454 450.214,531.788 455.5,528.5 Z"/></g>
<g><path style="opacity:0.129" fill="#313131" d="M 115.5,511.5 C 128.555,532.241 143.555,551.574 160.5,569.5C 141.801,553.123 126.801,533.789 115.5,511.5 Z"/></g>
<g><path style="opacity:0.392" fill="#555555" d="M 233.5,536.5 C 235.23,537.026 236.564,538.026 237.5,539.5C 235.368,539.446 234.035,538.446 233.5,536.5 Z"/></g>
<g><path style="opacity:0.216" fill="#535353" d="M 440.5,539.5 C 440.027,540.906 439.027,541.573 437.5,541.5C 437.973,540.094 438.973,539.427 440.5,539.5 Z"/></g>
<g><path style="opacity:0.38" fill="#515151" d="M 239.5,540.5 C 241.882,541.351 243.882,542.684 245.5,544.5C 242.733,544.13 240.733,542.796 239.5,540.5 Z"/></g>
<g><path style="opacity:0.039" fill="#404040" d="M 437.5,541.5 C 436.341,543.25 434.674,544.25 432.5,544.5C 433.659,542.75 435.326,541.75 437.5,541.5 Z"/></g>
<g><path style="opacity:0.075" fill="#494949" d="M 245.5,544.5 C 249.655,545.742 253.322,547.742 256.5,550.5C 254.692,550.509 253.025,550.009 251.5,549C 249.253,547.723 247.253,546.223 245.5,544.5 Z"/></g>
<g><path style="opacity:0.651" fill="#828282" d="M 432.5,544.5 C 430.942,546.509 428.942,548.176 426.5,549.5C 424.382,550.946 422.049,551.613 419.5,551.5C 423.577,548.773 427.91,546.439 432.5,544.5 Z"/></g>
<g><path style="opacity:0.424" fill="#6f6f6f" d="M 419.5,551.5 C 417.165,554.165 414.165,555.498 410.5,555.5C 413.088,553.408 416.088,552.075 419.5,551.5 Z"/></g>
<g><path style="opacity:0.09" fill="#525252" d="M 260.5,552.5 C 264.797,553.655 268.797,555.321 272.5,557.5C 267.968,556.895 263.968,555.228 260.5,552.5 Z"/></g>
<g><path style="opacity:0.298" fill="#606060" d="M 410.5,555.5 C 410.389,556.117 410.056,556.617 409.5,557C 405.553,558.484 401.553,559.65 397.5,560.5C 401.522,558.266 405.856,556.599 410.5,555.5 Z"/></g>
<g><path style="opacity:0.231" fill="#606060" d="M 272.5,557.5 C 274.553,557.402 276.22,558.069 277.5,559.5C 275.302,559.88 273.635,559.213 272.5,557.5 Z"/></g>
<g><path style="opacity:0.235" fill="#555555" d="M 397.5,560.5 C 395.485,561.924 393.152,562.59 390.5,562.5C 392.515,561.076 394.848,560.41 397.5,560.5 Z"/></g>
<g><path style="opacity:0.227" fill="#4b4b4b" d="M 390.5,562.5 C 388.485,563.924 386.152,564.59 383.5,564.5C 385.515,563.076 387.848,562.41 390.5,562.5 Z"/></g>
<g><path style="opacity:0.161" fill="#505050" d="M 280.5,560.5 C 291.609,563.184 302.609,565.851 313.5,568.5C 311.833,568.5 310.167,568.5 308.5,568.5C 300.96,566.679 293.293,564.846 285.5,563C 283.509,562.626 281.842,561.793 280.5,560.5 Z"/></g>
<g><path style="opacity:0.478" fill="#565656" d="M 378.5,565.5 C 375.155,567.217 371.489,567.884 367.5,567.5C 370.946,566.313 374.613,565.646 378.5,565.5 Z"/></g>
<g><path style="opacity:0.012" fill="#212121" d="M 160.5,569.5 C 164.242,572.575 167.575,575.909 170.5,579.5C 166.167,577.167 162.833,573.833 160.5,569.5 Z"/></g>
<g><path style="opacity:0.768" fill="#dedede" d="M 308.5,568.5 C 310.167,568.5 311.833,568.5 313.5,568.5C 315.167,568.5 316.833,568.5 318.5,568.5C 318.5,592.5 318.5,616.5 318.5,640.5C 318.167,640.5 317.833,640.5 317.5,640.5C 317.833,617.157 317.5,593.824 316.5,570.5C 313.689,569.92 311.023,569.254 308.5,568.5 Z"/></g>
<g><path style="opacity:0.741" fill="#dddddd" d="M 361.5,569.5 C 360.511,593.092 360.177,616.759 360.5,640.5C 360.167,640.5 359.833,640.5 359.5,640.5C 358.843,616.476 359.51,592.81 361.5,569.5 Z"/></g>
<g><path style="opacity:0.274" fill="#464646" d="M 367.5,567.5 C 365.698,568.458 363.698,569.125 361.5,569.5C 359.51,592.81 358.843,616.476 359.5,640.5C 359.167,640.5 358.833,640.5 358.5,640.5C 357.374,617.19 357.208,593.857 358,570.5C 360.67,568.203 363.836,567.203 367.5,567.5 Z"/></g>
<g><path style="opacity:0.024" fill="#202020" d="M 170.5,579.5 C 171.167,579.5 171.833,579.5 172.5,579.5C 176.5,583.167 180.5,586.833 184.5,590.5C 182.745,589.928 181.078,589.094 179.5,588C 176.043,585.613 173.043,582.78 170.5,579.5 Z"/></g>
<g><path style="opacity:0.987" fill="#e2e2e2" d="M 200.5,600.5 C 196.833,598.5 193.167,596.5 189.5,594.5C 188.415,592.413 186.749,591.08 184.5,590.5C 180.5,586.833 176.5,583.167 172.5,579.5C 175.989,580.689 176.322,579.855 173.5,577C 173.833,576.833 174.167,576.667 174.5,576.5C 176.409,577.348 178.409,577.682 180.5,577.5C 181.639,580.004 182.306,582.67 182.5,585.5C 183.675,585.281 184.675,585.614 185.5,586.5C 187.273,589.06 189.273,591.393 191.5,593.5C 194.118,593.605 196.784,593.439 199.5,593C 198.692,593.308 198.025,593.808 197.5,594.5C 198.833,595.5 200.167,596.5 201.5,597.5C 200.873,598.417 200.539,599.417 200.5,600.5 Z"/></g>
<g><path style="opacity:0.035" fill="#262626" d="M 184.5,590.5 C 186.749,591.08 188.415,592.413 189.5,594.5C 187.251,593.92 185.585,592.587 184.5,590.5 Z"/></g>
<g><path style="opacity:0.024" fill="#1b1b1b" d="M 189.5,594.5 C 193.167,596.5 196.833,598.5 200.5,600.5C 200.5,600.833 200.5,601.167 200.5,601.5C 196.053,600.385 192.387,598.052 189.5,594.5 Z"/></g>
<g><path style="opacity:0.024" fill="#2c2c2c" d="M 563.5,509.5 C 537.053,558.446 498.72,594.946 448.5,619C 422.109,630.782 394.609,638.615 366,642.5C 363.393,641.877 360.893,641.21 358.5,640.5C 358.833,640.5 359.167,640.5 359.5,640.5C 359.833,640.5 360.167,640.5 360.5,640.5C 393.538,637.834 424.538,629.167 453.5,614.5C 455.153,614.34 456.486,613.674 457.5,612.5C 490.405,595.43 518.238,572.096 541,542.5C 548.52,531.444 556.02,520.444 563.5,509.5 Z"/></g>
<g><path style="opacity:0.004" fill="#1a1a1a" d="M 200.5,601.5 C 202.23,602.026 203.564,603.026 204.5,604.5C 202.368,604.446 201.035,603.446 200.5,601.5 Z"/></g>
<g><path style="opacity:0.027" fill="#181818" d="M 204.5,604.5 C 207.5,605.833 210.5,607.167 213.5,608.5C 213.833,609.167 214.167,609.833 214.5,610.5C 210.495,609.502 207.161,607.502 204.5,604.5 Z"/></g>
<g><path style="opacity:0.384" fill="#6d6d6d" d="M 213.5,608.5 C 215.434,609.11 217.101,610.11 218.5,611.5C 217.833,611.5 217.167,611.5 216.5,611.5C 215.508,611.672 214.842,611.338 214.5,610.5C 214.167,609.833 213.833,609.167 213.5,608.5 Z"/></g>
<g><path style="opacity:0.311" fill="#565656" d="M 318.5,568.5 C 319.434,569.772 320.101,571.272 320.5,573C 319.935,595.487 319.602,617.987 319.5,640.5C 319.167,640.5 318.833,640.5 318.5,640.5C 318.5,616.5 318.5,592.5 318.5,568.5 Z"/></g>
<g><path style="opacity:0.2" fill="#8a8a8a" d="M 457.5,612.5 C 456.486,613.674 455.153,614.34 453.5,614.5C 454.287,612.896 455.62,612.229 457.5,612.5 Z"/></g>
<g><path style="opacity:0.02" fill="#161616" d="M 216.5,611.5 C 217.167,611.5 217.833,611.5 218.5,611.5C 220.5,612.833 222.5,614.167 224.5,615.5C 221.246,615.206 218.579,613.873 216.5,611.5 Z"/></g>
<g><path style="opacity:0.075" fill="#333333" d="M 224.5,615.5 C 227.852,615.53 230.518,616.863 232.5,619.5C 229.558,618.696 226.891,617.362 224.5,615.5 Z"/></g>
<g><path style="opacity:0.016" fill="#181818" d="M 232.5,619.5 C 235.912,620.042 238.912,621.375 241.5,623.5C 238.088,622.958 235.088,621.625 232.5,619.5 Z"/></g>
<g><path style="opacity:0.02" fill="#2b2b2b" d="M 241.5,623.5 C 243.199,623.34 244.866,623.506 246.5,624C 249.286,625.501 251.953,627.001 254.5,628.5C 249.777,627.63 245.444,625.964 241.5,623.5 Z"/></g>
<g><path style="opacity:0.024" fill="#191919" d="M 254.5,628.5 C 256.898,628.259 258.898,628.926 260.5,630.5C 258.214,630.405 256.214,629.738 254.5,628.5 Z"/></g>
<g><path style="opacity:0.02" fill="#1b1b1b" d="M 260.5,630.5 C 267.175,631.836 273.842,633.169 280.5,634.5C 281.5,635.167 282.5,635.833 283.5,636.5C 275.53,635.281 267.863,633.281 260.5,630.5 Z"/></g>
<g><path style="opacity:0.408" fill="#7b7b7b" d="M 280.5,634.5 C 283.341,634.56 286.007,635.226 288.5,636.5C 288.5,636.833 288.5,637.167 288.5,637.5C 286.585,637.784 284.919,637.451 283.5,636.5C 282.5,635.833 281.5,635.167 280.5,634.5 Z"/></g>
<g><path style="opacity:0.686" fill="#7f7f7f" d="M 288.5,636.5 C 294.184,636.261 299.518,637.261 304.5,639.5C 302.833,639.5 301.167,639.5 299.5,639.5C 295.575,639.57 291.909,638.903 288.5,637.5C 288.5,637.167 288.5,636.833 288.5,636.5 Z"/></g>
<g><path style="opacity:0.118" fill="#232323" d="M 299.5,639.5 C 301.167,639.5 302.833,639.5 304.5,639.5C 308.798,640.2 313.131,640.533 317.5,640.5C 317.833,640.5 318.167,640.5 318.5,640.5C 318.833,640.5 319.167,640.5 319.5,640.5C 312.783,641.719 306.117,641.386 299.5,639.5 Z"/></g>
</svg>
